# xmcd
#
# Track frame offsets:
# 150
# 13138
# 34217
# 57815
# 79616
# 99484
# 107543
# 119649
# 146405
#
# Disc length: 2237 seconds
#
#
# Revision: 0
# Processed by: cddbd v1.5.2PL0 Copyright (c) Steve Scherf et al.
# Submitted via: FreeRIP 2.951 
#
DISCID=7008bb09
DTITLE=Tom Waits - I am seeking Rest for my lonely Heart
DYEAR=1986
DGENRE=Blues
TTITLE0=Underground
TTITLE1=Walking Spanish
TTITLE2=Jockey full of Bourbon
TTITLE3=Big Black Maria
TTITLE4=Downtown Trains
TTITLE5=Tango till you´re sore
TTITLE6=Ruby´s Arms
TTITLE7=Sight for sore Eyes/Eggs and Sausage/Invitation to the Blues
TTITLE8=Take care of all Children/In the Neigbourhood
EXTD=Live in Hamburg 1986
EXTT0=
EXTT1=
EXTT2=
EXTT3=
EXTT4=
EXTT5=
EXTT6=
EXTT7=
EXTT8=
PLAYORDER=
